<?xml version="1.0" encoding="UTF-8"?>
<!DOCTYPE svg PUBLIC "-//W3C//DTD SVG 1.1//EN" "http://www.w3.org/Graphics/SVG/1.1/DTD/svg11.dtd">
<svg version="1.1" xmlns="http://www.w3.org/2000/svg" xmlns:xlink="http://www.w3.org/1999/xlink" width="456" height="456"  xml:space="preserve" id="beoRecruitmentmauiResourcesAppIconappiconfg">
    <!-- Generated by PaintCode - http://www.paintcodeapp.com -->
    <g id="beoRecruitmentmauiResourcesAppIconappiconfg-group2" transform="translate(53, 53) scale(0.51, 0.51)" >
        <g id="beoRecruitmentmauiResourcesAppIconappiconfg-group">
            <path id="beoRecruitmentmauiResourcesAppIconappiconfg-bezier" stroke="none" fill="rgb(25, 24, 23)" d="M 615.37,490.66 C 615.37,453.14 600.77,417.84 574.31,391.36 547.8,364.79 512.54,350.18 475.09,350.18 437.59,350.18 402.33,364.79 375.82,391.36 349.31,417.84 334.72,453.14 334.72,490.66 334.72,528.19 349.31,563.43 375.82,589.97 402.33,616.49 437.59,631.1 475.09,631.1 552.45,631.1 615.37,568.09 615.37,490.66 Z M 608.61,356.93 C 644.29,392.71 663.97,440.18 663.97,490.66 663.97,541.18 644.29,588.65 608.61,624.33 572.96,660.04 525.49,679.74 475.09,679.74 424.59,679.74 377.17,660.04 341.48,624.33 305.79,588.65 286.16,541.18 286.16,490.66 286.16,440.18 305.79,392.71 341.48,356.93 377.17,321.23 424.59,301.59 475.09,301.59 525.49,301.59 572.96,321.23 608.61,356.93 Z M 608.61,356.93" />
            <path id="beoRecruitmentmauiResourcesAppIconappiconfg-bezier2" stroke="none" fill="rgb(25, 24, 23)" d="M 515.72,201.21 L 463.39,149.34 440.03,172.75 C 433.25,179.5 429.17,189.42 429.17,199.2 429.17,208.84 432.95,217.65 440.03,224.79 456.27,241 478.58,238.23 492.03,224.96 503.19,213.92 513.33,203.63 515.72,201.21 Z M 570.99,201.29 L 608.2,238.56 607.82,239.2 581.31,265.85 543.54,228.99 C 537.45,234.95 531.12,241.24 519.96,252.45 507.46,264.92 489.09,273.26 470.86,274.74 455.55,276 432.99,273.19 412.43,252.63 397.81,237.97 390.04,219.84 390.04,200.1 390.04,179.76 398.54,158.61 412.27,144.87 L 435.8,121.85 C 424.59,111.44 408.83,94.4 408.83,66.66 408.83,49.94 415.59,33.25 427.32,20.74 439.87,7.34 456.97,-0 475.43,-0 499.67,-0 515.3,12.22 522.44,19.48 L 523.15,20.32 522.7,20.86 511.82,31.73 496.1,47.42 495.56,47.99 495,47.4 C 492.7,45 486.16,39.38 475.51,39.38 468.55,39.38 460.91,42.55 455.77,47.76 452.2,51.34 448,57.51 448,66.81 448,75.55 451.2,81.06 456.34,86.34 465.91,95.98 543.32,173.63 543.32,173.63 L 569.78,147.06 597.42,174.77 570.99,201.29 Z M 570.99,201.29" />
            <path id="beoRecruitmentmauiResourcesAppIconappiconfg-bezier3" stroke="none" fill="rgb(25, 24, 23)" d="M 191.89,533.21 C 191.89,507.03 181.7,482.39 163.2,463.84 144.66,445.33 119.83,435.13 93.66,435.13 93.66,435.13 74.84,435.05 70.85,435.05 L 70.85,631.3 93.84,631.3 C 147.9,631.3 191.89,587.28 191.89,533.21 Z M 238.64,217.64 C 238.64,172.61 221.21,130.23 189.37,98.33 157.71,66.69 115.6,49.18 70.85,48.98 L 70.85,386.31 C 115.6,386.11 157.71,368.63 189.37,336.93 221.21,305.07 238.64,262.68 238.64,217.64 Z M 223.72,64.01 C 264.73,105 287.24,159.61 287.24,217.64 287.24,298.1 243.26,371.46 172.38,409.36 192.64,422.24 209.68,440.04 221.49,460.95 233.95,482.85 240.53,507.83 240.53,533.21 240.53,572.38 225.27,609.22 197.54,636.97 169.91,664.68 133.09,679.94 93.92,679.94 L 22.13,679.9 22,0.34 70.19,0.34 C 128.18,0.34 182.71,22.92 223.72,64.01 Z M 223.72,64.01" />
        </g>
    </g>
</svg>
